Coordinates
version=1
nRows=17
nColumns=34
inDegrees=yes

Units are S.I. units (second, meters, Newtons, ...)
If the header above contains a line with 'inDegrees', this indicates whether rotational values are in degrees (yes) or radians (no).

endheader
time	pelvis_tilt	pelvis_list	pelvis_rotation	pelvis_tx	pelvis_ty	pelvis_tz	hip_flexion_r	hip_adduction_r	hip_rotation_r	knee_angle_r	ankle_angle_r	subtalar_angle_r	mtp_angle_r	hip_flexion_l	hip_adduction_l	hip_rotation_l	knee_angle_l	ankle_angle_l	subtalar_angle_l	mtp_angle_l	lumbar_extension	lumbar_bending	lumbar_rotation	arm_flex_r	arm_add_r	arm_rot_r	elbow_flex_r	pro_sup_r	arm_flex_l	arm_add_l	arm_rot_l	elbow_flex_l	pro_sup_l
      7.45000000	      5.48476369	      3.96453460	    -21.20602283	      0.13615579	      1.01102171	     -0.17679714	    -17.68655225	     -7.93790628	    -36.34399930	     12.69255862	     11.80627049	     -4.26404325	      0.00000000	     -4.26669697	      1.70188073	     33.31106822	      5.02001044	      4.23674198	      5.81781972	      0.00000000	    -11.59744390	     -4.59674275	      7.31600992	     14.23740958	     -6.69183812	     26.51052086	     18.16602597	    119.74817918	     11.11993308	     -9.32655315	      6.07897362	     17.29130316	    110.86524364
      7.46666670	      5.18713514	      4.03357819	    -20.75995870	      0.13607489	      1.01067371	     -0.17742843	    -17.43407444	     -7.80629618	    -36.99251408	     12.71761300	     11.79819620	     -4.00700124	      0.00000000	     -3.71560601	      1.72788706	     33.68582724	      5.39114876	      4.43630557	      5.78526864	      0.00000000	    -11.24934930	     -4.56404506	      7.09076163	     14.33173238	     -7.22567525	     29.34375276	     18.98760211	    119.74817918	     10.85602844	     -9.61781216	      5.93791899	     17.56264536	    111.28975357
      7.48333330	      5.20160592	      4.03287076	    -20.67348061	      0.13604354	      1.01074491	     -0.17757478	    -17.45489972	     -7.77928138	    -37.04081362	     12.70822958	     11.79660986	     -4.02174754	      0.00000000	     -3.70378980	      1.73309913	     33.71884134	      5.41882486	      4.40809042	      5.81149480	      0.00000000	    -11.20598892	     -4.60709969	      7.29100313	     14.49142385	     -7.34732341	     29.35145540	     18.98228181	    119.74817918	     10.77157160	     -9.77928400	      5.91205617	     17.52125824	    111.29165658
      7.50000000	      5.12408651	      4.07452976	    -20.62600385	      0.13583961	      1.01074628	     -0.17746508	    -17.41833665	     -7.73916123	    -37.34533592	     12.55301389	     11.62788911	     -3.99625931	      0.00000000	     -3.56448052	      1.73858731	     33.80859814	      5.46679449	      4.29347848	      5.89121075	      0.00000000	    -11.08715166	     -4.72838564	      7.77019637	     14.49673611	     -7.55855062	     29.83398264	     19.13274934	    119.74817918	     10.79860012	    -10.00672542	      5.86040404	     17.65243409	    111.37650819
      7.51666670	      5.12444405	      4.06858290	    -20.55725072	      0.13589617	      1.01078174	     -0.17760662	    -17.43336555	     -7.71814330	    -37.38111991	     12.55071098	     11.61707691	     -3.99944713	      0.00000000	     -3.55536429	      1.73584842	     33.83133673	      5.48666716	      4.28319548	      5.90578097	      0.00000000	    -11.03174132	     -4.76120548	      7.91669679	     14.67840930	     -7.68594741	     29.85470439	     19.20188835	    119.74817918	     10.67255928	    -10.19148632	      5.83759821	     17.58389538	    111.38075847
      7.53333330	      4.89362291	      4.10774044	    -20.52243329	      0.13610773	      1.01057969	     -0.17750009	    -17.27768609	     -7.63069011	    -37.69380975	     12.36116846	     11.31515930	     -3.81098699	      0.00000000	     -3.33882602	      1.66629994	     33.85586171	      5.43296933	      4.29202323	      5.91180842	      0.00000000	    -10.68009762	     -4.80293389	      8.17294185	     14.45994651	     -8.15451861	     30.94831799	     20.26807423	    119.74817918	     10.43948273	    -10.47548542	      5.81010317	     17.65785642	    111.55702122
      7.55000000	      4.80036027	      3.99935393	    -20.44624252	      0.13578493	      1.01059587	     -0.17808408	    -17.16150600	     -7.53340637	    -37.81072627	     12.47510168	     11.63953501	     -3.62310982	      0.00000000	     -3.15649667	      1.59234296	     34.03390950	      5.64759461	      4.39954219	      5.91505779	      0.00000000	    -10.64816038	     -4.65043751	      8.31799745	     14.64620638	     -8.75735589	     32.77285798	     20.88186167	    119.74817918	     10.36661004	    -10.57292885	      5.73917889	     17.59267108	    111.91870072
      7.56666670	      4.74770670	      4.06660378	    -20.48252335	      0.13610500	      1.01066901	     -0.17797586	    -17.14179358	     -7.58838022	    -37.99190407	     12.37394087	     11.32931684	     -3.51097801	      0.00000000	     -3.14434881	      1.63099144	     33.92076023	      5.56623339	      4.35599847	      5.86914575	      0.00000000	    -10.42697363	     -4.74681783	      8.44926674	     14.77497622	     -8.82606968	     33.14298913	     20.85983503	    119.74817918	     10.14181840	    -10.81229762	      5.68194047	     17.49264942	    112.01893349
      7.58333330	      4.75142039	      4.06769581	    -20.38625380	      0.13611465	      1.01082187	     -0.17832202	    -17.15260974	     -7.57530800	    -37.99801260	     12.37837393	     11.33070530	     -3.51131618	      0.00000000	     -3.13631916	      1.64676572	     33.92638344	      5.56445135	      4.34861108	      5.87505466	      0.00000000	    -10.41487869	     -4.74520595	      8.57221985	     14.88109925	     -8.86891088	     33.14152439	     20.88458377	    119.74817918	     10.05825161	    -10.89997190	      5.67010686	     17.45187782	    112.01936915
      7.60000000	      4.52769935	      3.96413548	    -20.47077565	      0.13595006	      1.01073095	     -0.17818190	    -17.00029744	     -7.38272152	    -38.13025889	     12.19465989	     11.20476892	     -3.25388720	      0.00000000	     -2.96037595	      1.44143178	     33.85517049	      5.52663358	      4.18806391	      5.87366439	      0.00000000	    -10.16468526	     -4.64012555	      8.83805777	     14.88853247	     -9.34930459	     34.02728788	     21.63725023	    119.74817918	      9.87641738	    -11.13841701	      5.62462381	     17.47780020	    112.21008202
      7.61666670	      4.53427806	      3.95065709	    -20.40727793	      0.13599833	      1.01076194	     -0.17854821	    -17.01738368	     -7.38184695	    -38.14766694	     12.19207305	     11.21041067	     -3.25806155	      0.00000000	     -2.95663443	      1.44960294	     33.87302367	      5.54211985	      4.19211445	      5.88158704	      0.00000000	    -10.13462237	     -4.65154290	      8.96044929	     15.02780399	     -9.44014626	     34.03893726	     21.66135534	    119.74817918	      9.78429214	    -11.24622928	      5.61053840	     17.42856290	    112.21621480
      7.63333330	      4.40236829	      3.84247719	    -20.52544075	      0.13572650	      1.01070832	     -0.17873564	    -16.89690629	     -7.29015021	    -38.21832413	     12.12992941	     11.07103052	     -2.92090398	      0.00000000	     -2.79687440	      1.35590307	     33.75724310	      5.68883857	      4.27725257	      5.73665658	      0.00000000	    -10.04344471	     -4.51384927	      9.27168905	     15.11966222	     -9.88726993	     35.24341049	     22.29184428	    119.74817918	      9.64335660	    -11.34110274	      5.63769339	     17.47908899	    112.50782417
      7.65000000	      4.40714687	      3.84195271	    -20.44433528	      0.13573413	      1.01074154	     -0.17911397	    -16.90721436	     -7.28689349	    -38.22230752	     12.13224038	     11.07761091	     -2.92416843	      0.00000000	     -2.78844556	      1.37536732	     33.76038366	      5.68097116	      4.27406152	      5.74098083	      0.00000000	    -10.03912699	     -4.50398000	      9.36930702	     15.20245256	     -9.89531102	     35.24455414	     22.30824256	    119.74817918	      9.57870227	    -11.38749145	      5.63235000	     17.44872305	    112.50961175
      7.66666670	      4.40027222	      3.82384330	    -20.44410362	      0.13557250	      1.01075702	     -0.17924104	    -16.90410939	     -7.26831803	    -38.25795016	     12.11299429	     11.08582634	     -2.93238011	      0.00000000	     -2.76707260	      1.36567213	     33.78335863	      5.69744726	      4.25285519	      5.76069208	      0.00000000	    -10.02187565	     -4.53550235	      9.47308460	     15.35939115	     -9.99665367	     35.25852213	     22.32288836	    119.74817918	      9.49277683	    -11.49580030	      5.62535963	     17.40195710	    112.51996395
      7.68333330	      4.39555688	      3.82599623	    -20.39121846	      0.13549242	      1.01078476	     -0.17961025	    -16.90120320	     -7.26609113	    -38.26538722	     12.10724379	     11.08281122	     -2.93000455	      0.00000000	     -2.74422663	      1.38358450	     33.78647196	      5.68934399	      4.24830057	      5.76394776	      0.00000000	    -10.04349251	     -4.51813192	      9.56477737	     15.42531268	     -9.99016528	     35.26774820	     22.34258504	    119.74817918	      9.43153465	    -11.53443261	      5.62399642	     17.37645932	    112.52345568
      7.70000000	      4.39020542	      3.82010015	    -20.34643867	      0.13537328	      1.01078014	     -0.17987459	    -16.89709471	     -7.25734259	    -38.27559262	     12.10221243	     11.07621401	     -2.92645312	      0.00000000	     -2.72287213	      1.39507644	     33.79103746	      5.68925916	      4.24281287	      5.76728084	      0.00000000	    -10.05930939	     -4.52117858	      9.65957825	     15.50377103	    -10.00039051	     35.27357860	     22.35909623	    119.74817918	      9.36344274	    -11.56947197	      5.62464407	     17.34965878	    112.52739998
      7.71666670	      4.27426760	      3.63600447	    -20.73602066	      0.13464261	      1.01080819	     -0.17979824	    -16.70611965	     -7.20561988	    -38.21902760	     12.13921717	     10.85073505	     -2.55589267	      0.00000000	     -2.54664348	      1.27197746	     33.47553751	      5.96926394	      4.22537506	      5.54627720	      0.00000000	    -10.08345038	     -4.28939031	     10.22763996	     15.79941308	    -10.21652381	     35.99567820	     22.17369579	    119.74817918	      9.28872048	    -11.56336670	      5.94271218	     17.47352967	    112.81326172
